<?xml version="1.0" standalone="no"?>
<!DOCTYPE svg PUBLIC "-//W3C//DTD SVG 20010904//EN"
 "http://www.w3.org/TR/2001/REC-SVG-20010904/DTD/svg10.dtd">
<svg version="1.0" xmlns="http://www.w3.org/2000/svg"
 width="700.000000pt" height="700.000000pt" viewBox="0 0 700.000000 700.000000"
 preserveAspectRatio="xMidYMid meet">
<metadata>
Created by potrace 1.11, written by Peter Selinger 2001-2013
</metadata>
<g transform="translate(0.000000,700.000000) scale(0.100000,-0.100000)"
fill="#000000" stroke="none">
<path d="M935 5888 c-49 -18 -84 -47 -105 -88 -20 -39 -20 -65 -20 -1715 l0
-1675 2690 0 2690 0 0 1678 0 1678 -29 45 c-17 27 -44 53 -67 65 -38 19 -93
19 -2584 21 -1781 1 -2554 -2 -2575 -9z m2193 -1205 c3 -51 2 -53 -22 -53 -25
0 -26 3 -26 56 0 52 1 55 23 52 19 -3 22 -10 25 -55z m-165 -51 c34 -35 36
-40 22 -52 -14 -11 -21 -8 -55 25 -30 30 -37 42 -29 52 16 19 21 17 62 -25z
m344 22 c4 -10 -7 -29 -30 -52 -31 -31 -38 -34 -52 -22 -14 12 -12 17 22 52
41 42 51 46 60 22z m-367 -194 c0 -18 -7 -20 -60 -20 -53 0 -60 2 -60 20 0 18
7 20 60 20 53 0 60 -2 60 -20z m440 0 c0 -18 -7 -20 -55 -20 -48 0 -55 2 -55
20 0 18 7 20 55 20 48 0 55 -2 55 -20z m33 -180 c194 -107 293 -166 285 -172
-7 -4 -40 -8 -73 -9 -33 0 -81 -4 -107 -7 l-47 -7 84 -110 85 -110 -27 -23
c-16 -13 -40 -32 -55 -43 l-27 -19 -67 87 c-38 49 -76 98 -85 111 -22 28 -22
28 -69 -111 -20 -57 -37 -93 -41 -85 -3 7 -41 155 -83 328 -42 173 -79 321
-81 328 -3 7 -1 11 3 9 4 -2 141 -77 305 -167z m-424 57 c8 -10 1 -22 -29 -52
-34 -33 -41 -36 -55 -25 -14 12 -12 17 22 52 41 42 46 44 62 25z m139 -99 c-3
-46 -6 -53 -25 -56 -22 -3 -23 0 -23 52 0 53 1 56 26 56 24 0 25 -2 22 -52z"/>
<path d="M942 2330 l-23 -30 205 0 204 0 16 25 c9 13 16 27 16 30 0 3 -89 5
-198 5 l-198 0 -22 -30z"/>
<path d="M1696 2338 c-9 -12 -16 -26 -16 -30 0 -5 91 -8 203 -8 l203 0 11 30
11 30 -198 0 c-194 0 -199 -1 -214 -22z"/>
<path d="M2210 2334 c-6 -14 -10 -27 -10 -30 0 -2 92 -4 205 -4 170 0 205 2
205 14 0 8 3 21 6 30 5 14 -16 16 -195 16 l-201 0 -10 -26z"/>
<path d="M2726 2338 c-3 -13 -6 -26 -6 -30 0 -5 92 -8 205 -8 l205 0 0 30 0
30 -199 0 c-198 0 -199 0 -205 -22z"/>
<path d="M3240 2330 l0 -30 205 0 c216 0 216 0 199 44 -5 14 -33 16 -205 16
l-199 0 0 -30z"/>
<path d="M4092 2333 l3 -28 203 -3 c111 -1 202 1 202 5 0 5 -3 18 -6 31 -6 22
-7 22 -206 22 l-199 0 3 -27z"/>
<path d="M4600 2356 c0 -3 4 -16 10 -30 l10 -26 200 0 c110 0 200 2 200 4 0 3
-4 16 -10 30 l-10 26 -200 0 c-110 0 -200 -2 -200 -4z"/>
<path d="M5125 2330 l16 -30 199 0 c110 0 200 3 200 8 0 4 -7 18 -16 30 -15
21 -20 22 -215 22 l-200 0 16 -30z"/>
<path d="M5630 2352 c0 -4 7 -18 16 -30 15 -21 20 -22 215 -22 109 0 199 3
199 8 -1 4 -9 17 -19 30 -19 21 -24 22 -215 22 -108 0 -196 -3 -196 -8z"/>
<path d="M858 2218 c-13 -18 -28 -39 -32 -45 -6 -10 38 -13 203 -13 l211 0 25
40 c14 22 25 42 25 45 0 3 -92 5 -204 5 l-204 0 -24 -32z"/>
<path d="M1457 2205 l-26 -45 213 0 212 0 22 45 22 45 -209 0 -209 0 -25 -45z"/>
<path d="M2072 2223 c-5 -16 -13 -36 -17 -46 -7 -16 5 -17 206 -15 l213 3 12
43 13 42 -209 0 -208 0 -10 -27z"/>
<path d="M2676 2219 c-12 -63 -24 -59 203 -59 l209 0 6 31 c12 63 24 59 -203
59 l-208 0 -7 -31z"/>
<path d="M3286 2234 c-3 -9 -6 -29 -6 -45 l0 -29 216 0 216 0 -6 23 c-3 12 -6
32 -6 45 l0 22 -204 0 c-177 0 -205 -2 -210 -16z"/>
<path d="M3890 2221 c0 -63 -8 -61 222 -61 l210 0 -7 37 c-4 21 -9 41 -11 45
-3 5 -97 8 -210 8 l-204 0 0 -29z"/>
<path d="M4494 2233 c3 -10 8 -30 12 -45 l6 -28 214 0 213 0 -17 45 -16 45
-209 0 c-194 0 -208 -1 -203 -17z"/>
<path d="M5109 2208 l18 -43 211 -3 c117 -1 212 0 212 3 0 3 -10 24 -22 45
l-23 40 -207 0 -207 0 18 -42z"/>
<path d="M5718 2205 l27 -44 213 -1 213 0 -32 45 -32 45 -208 0 -208 0 27 -45z"/>
<path d="M750 2078 l-31 -43 213 -3 c117 -1 217 -1 223 2 5 2 20 22 33 45 l23
41 -214 0 -215 0 -32 -42z"/>
<path d="M1385 2083 c-11 -21 -21 -41 -23 -45 -2 -5 95 -8 215 -8 l219 0 22
45 22 45 -218 0 -218 0 -19 -37z"/>
<path d="M2015 2084 c-8 -20 -15 -40 -15 -45 0 -5 99 -9 219 -9 l219 0 6 28
c4 15 9 35 12 45 5 16 -10 17 -210 17 l-216 0 -15 -36z"/>
<path d="M2643 2075 l-10 -45 223 0 224 0 0 45 0 45 -213 0 -214 0 -10 -45z"/>
<path d="M3280 2098 c0 -13 -3 -33 -6 -45 l-6 -23 221 0 221 0 0 45 0 45 -215
0 -215 0 0 -22z"/>
<path d="M3904 2098 c3 -13 6 -33 6 -45 l0 -23 221 0 221 0 -7 37 c-4 21 -9
41 -11 45 -3 5 -102 8 -221 8 l-215 0 6 -22z"/>
<path d="M4530 2113 c0 -5 5 -25 11 -45 l10 -38 221 0 c206 0 220 1 213 18 -4
9 -12 29 -17 45 l-10 27 -214 0 c-118 0 -214 -3 -214 -7z"/>
<path d="M5169 2078 l18 -43 223 -3 222 -2 -25 42 -25 43 -216 3 -215 2 18
-42z"/>
<path d="M5780 2115 c0 -3 11 -23 25 -45 l25 -40 221 0 220 0 -32 45 -32 45
-214 0 c-117 0 -213 -2 -213 -5z"/>
<path d="M685 1982 c-14 -9 -75 -88 -75 -96 0 -3 179 -6 398 -6 l397 0 28 50
c15 28 27 52 27 55 0 8 -764 5 -775 -3z"/>
<path d="M1622 1978 c-5 -7 -19 -32 -31 -56 l-22 -42 232 2 231 3 18 47 c10
26 15 49 12 52 -3 4 -101 6 -217 6 -158 0 -215 -3 -223 -12z"/>
<path d="M2256 1943 c-9 -26 -16 -50 -16 -55 0 -4 103 -8 229 -8 l228 0 7 38
c13 78 31 72 -213 72 l-219 0 -16 -47z"/>
<path d="M2917 1973 c-3 -10 -8 -35 -12 -55 l-6 -38 231 0 230 0 0 55 0 55
-219 0 c-201 0 -220 -2 -224 -17z"/>
<path d="M3567 1983 c-2 -5 -2 -29 1 -55 l4 -48 228 0 c212 0 228 1 225 18 -2
9 -7 34 -10 55 l-6 37 -219 0 c-120 0 -221 -3 -223 -7z"/>
<path d="M4158 1985 c-3 -3 -2 -25 3 -48 4 -23 8 -45 9 -49 0 -5 198 -8 441
-8 l440 0 -7 22 c-3 12 -13 36 -20 55 l-14 33 -423 0 c-233 0 -426 -2 -429 -5z"/>
<path d="M5220 1978 c0 -7 9 -32 20 -55 l19 -43 231 0 232 0 -23 38 c-46 77
-29 72 -266 72 -164 0 -213 -3 -213 -12z"/>
<path d="M5870 1979 c0 -7 12 -31 28 -55 l27 -44 228 0 c180 0 227 3 221 13
-4 6 -22 31 -41 55 l-34 42 -215 0 c-154 0 -214 -3 -214 -11z"/>
<path d="M531 1785 c-22 -30 -41 -57 -41 -60 0 -3 106 -5 235 -5 l235 0 35 55
c19 30 35 57 35 60 0 3 -103 5 -229 5 l-229 0 -41 -55z"/>
<path d="M1212 1786 c-17 -30 -32 -57 -32 -60 0 -3 574 -6 1275 -6 l1276 0 -3
58 -3 57 -1240 3 -1240 2 -33 -54z"/>
<path d="M3940 1796 c0 -81 -16 -76 246 -76 262 0 243 -6 223 76 l-11 44 -229
0 -229 0 0 -44z"/>
<path d="M4610 1831 c0 -40 3 -41 246 -41 129 0 234 3 234 6 0 3 -5 14 -10 25
-10 18 -24 19 -240 19 -133 0 -230 -4 -230 -9z"/>
<path d="M5294 1808 c7 -18 19 -45 26 -60 l13 -28 239 0 239 0 -17 33 c-9 17
-25 44 -36 60 l-19 27 -230 0 -229 0 14 -32z"/>
<path d="M5960 1832 c0 -4 16 -31 35 -60 l36 -52 235 0 c192 0 234 2 227 13
-4 7 -23 34 -42 60 l-34 47 -229 0 c-125 0 -228 -3 -228 -8z"/>
<path d="M4630 1761 c0 -41 3 -41 247 -41 l234 0 -3 23 -3 22 -237 3 c-143 1
-238 -1 -238 -7z"/>
<path d="M2871 1658 c-5 -13 -25 -62 -44 -110 l-35 -88 708 0 708 0 -43 108
-43 107 -621 3 -621 2 -9 -22z"/>
</g>
</svg>
